<?xml version="1.0" encoding="UTF-8"?>
<svg version="1.1" viewBox="0 0 1024 1024"  xmlns="http://www.w3.org/2000/svg">
<path transform="translate(493)" d="m0 0h39l5 1h10l40 5 30 5 44 11 26 9 31 12 17 8 16 8 18 10 21 13 16 11 19 14 16 13 30 27 14 14 7 8 12 13 11 14 14 19 11 16 14 23 10 17 18 37 10 26 10 28 12 48 7 45 3 31v51l-3 32-7 45-8 34-8 27-13 35-8 18-8 16-11 21-8 13-12 19-12 17-10 13-9 12-9 10-12 13-7 8-14 14-8 7-13 12-14 11-16 12-17 12-21 13-20 12-26 13-20 9-44 16-38 10-31 6-32 5-31 2h-50l-30-3-45-7-44-11-27-9-26-10-27-13-17-8-20-12-24-15-16-12-19-14-11-10-8-7-15-14-7-6-7-8-12-13-10-11-13-17-14-19-12-18-14-23-6-10-11-23-9-19-16-44-5-17-8-33-5-30-4-30-2-26v-41l4-41 6-38 7-30 7-25 10-28 11-27 14-28 6-11 13-22 11-17 9-12 8-11 10-13 12-14 7-7 7-8 11-12 13-12 20-18 28-21 17-12 25-15 14-8 16-8 27-13 41-15 24-7 34-8 39-6 30-3zm18 83-4 1-39 2-39 6-40 10-29 10-21 9-25 12-16 9-24 15-21 16-12 9-14 13-8 7-4 3v2l-4 2-9 10-11 12-10 12-12 16-12 17-17 28-9 17-11 24-13 36-7 25-6 28-4 26-3 40v21l2 30 4 30 5 25 7 27 11 32 9 21 12 25 8 14 15 24 14 19 11 14 12 13 7 8 21 21 8 7 14 12 30 22 32 19 16 8 23 11 35 13 30 8 23 5 34 5 35 2h15l35-2 40-6 29-7 24-7 32-12 39-19 34-21 17-13 16-12 16-15 10-9 12-12 7-8 11-12 9-12 14-19 9-14 15-25 16-34 10-27 7-21 8-33 6-37 2-25v-47l-2-25-6-38-9-36-7-21-10-26-16-33-17-29-11-16-16-21-9-10-7-8-9-10-5-6-8-7-13-12-13-11-19-14-14-10-28-17-16-8-27-13-33-12-37-10-22-4-27-4-37-2z" fill="#221F20"/>
<path transform="translate(486,299)" d="m0 0h50l8 3 4 3v2h2l5 8 2 7v146h143l9 2 10 6 4 5 3 8 1 38-2 12-4 7-9 8-6 2-7 1h-142v144l-2 10-5 8-5 4-9 3-7 1h-36l-12-3-7-5-4-6-2-5-1-8v-143h-146l-8-2-6-4-6-7-3-9v-45l4-11 7-7 10-4h148v-138l2-11 4-9 7-8z" fill="#221F20"/>
</svg>
